<svg width="784" height="714" viewBox="0 0 784 714" fill="none" xmlns="http://www.w3.org/2000/svg">
<g clip-path="url(#clip0_32_2)">
<path d="M784 0H0V714H784V0Z" fill="#011046"/>
<path d="M379.256 170.911C380.634 176.586 382.712 179.458 389.88 183.751C399.195 185.946 403.729 184.089 410.777 176.047C412.699 166.702 412.06 161.753 407.252 153.539C406.361 151.515 405.246 150.809 402.116 150.367C395.587 151.19 391.74 152.523 384.442 156.762C380.982 159.738 379.468 162.163 379.256 170.911Z" fill="#FF4F4F"/>
<path d="M378.652 151.223C378.32 148.36 377.763 146.78 375.883 144.022L373.113 138.836C375.801 137.707 377.454 137.428 380.566 137.325C382.935 137.865 383.844 138.559 385.148 140.095C390.298 146.118 390.256 148.495 384.997 150.921C380.971 153.407 378.503 155.124 378.652 151.223Z" fill="#FF4F4F"/>
<path d="M364.401 151.877C366.907 162.202 369.415 165.2 373.263 168.242C375.512 162.285 374.99 158.392 373.817 151.374C371.884 145.115 370.062 142.08 363.595 138.735C357.773 135.157 357.906 137.174 361.632 144.224C365.357 151.273 364.401 151.877 364.401 151.877Z" fill="#FF4F4F"/>
<path d="M417.978 159.682C416.479 158.744 416.3 160.008 416.517 163.71C416.269 167.864 417.13 168.558 419.992 167.638C422.561 167.137 423.937 167.03 426.336 166.983C428.913 167.14 429.683 166.681 428.401 163.71C427.349 161.089 426.329 160.284 423.516 160.387C421.428 160.406 420.232 160.317 417.978 159.682Z" fill="#FF4F4F"/>
<path d="M411.128 183.55C408.775 185.07 407.896 185.793 410.474 185.866C416.302 184.805 419.514 183.5 425.177 180.277C427.847 178.455 429.396 177.825 432.277 177.507C436.76 176.262 437.432 175.343 432.982 173.026C423.906 170.279 419.63 170.448 415.207 177.507C414.393 180.007 413.525 181.334 411.128 183.55Z" fill="#FF4F4F"/>
<path d="M428.236 378.729C422.581 380.186 419.738 382.304 415.546 389.532C413.482 398.877 415.402 403.384 423.542 410.319C432.913 412.11 437.852 411.402 445.998 406.48C448.01 405.561 448.7 404.435 449.098 401.299C448.184 394.782 446.797 390.954 442.457 383.717C439.432 380.299 436.986 378.819 428.236 378.729Z" fill="#FF4F4F"/>
<path d="M447.917 377.849C450.774 377.476 452.347 376.898 455.078 374.979L460.225 372.137C461.391 374.809 461.693 376.458 461.84 379.568C461.333 381.944 460.652 382.863 459.135 384.188C453.184 389.422 450.806 389.413 448.308 384.189C445.765 380.199 444.014 377.754 447.917 377.849Z" fill="#FF4F4F"/>
<path d="M447.061 363.61C436.772 366.26 433.81 368.81 430.822 372.7C436.81 374.866 440.695 374.288 447.696 373.017C453.927 370.997 456.936 369.132 460.191 362.619C463.687 356.748 461.672 356.909 454.675 360.732C447.679 364.556 447.061 363.61 447.061 363.61Z" fill="#FF4F4F"/>
<path d="M440.006 417.289C440.923 415.778 439.657 415.617 435.958 415.885C431.801 415.695 431.119 416.566 432.079 419.414C432.616 421.977 432.742 423.351 432.823 425.749C432.702 428.328 433.172 429.091 436.124 427.768C438.73 426.68 439.521 425.648 439.379 422.837C439.331 420.75 439.403 419.553 440.006 417.289Z" fill="#FF4F4F"/>
<path d="M416.046 410.775C414.493 408.444 413.758 407.575 413.721 410.153C414.863 415.966 416.213 419.159 419.516 424.777C421.374 427.42 422.026 428.96 422.384 431.837C423.692 436.303 424.62 436.961 426.875 432.479C429.494 423.366 429.266 419.092 422.145 414.769C419.635 413.99 418.295 413.14 416.046 410.775Z" fill="#FF4F4F"/>
<path d="M369.82 371.947C371.517 375.007 373.763 376.936 381.018 380.912C384.848 382.62 388.099 382.9 394.295 383.153C401.05 382.161 403.507 383.029 405.813 386.995C407.478 389.441 408.376 391.327 409.973 394.839C411.321 397.972 410.348 399.08 405.813 399.962C380.487 404.581 366.94 404.172 344.064 397.081L337.505 394.839L338.305 389.076C337.311 379.436 335.093 374.942 329.027 368.105L324.707 364.263L324.227 368.745C324.102 374.509 324.146 377.863 326.467 386.195C328.14 389.712 326.353 389.011 319.268 383.954C301.245 368.185 293.89 359.167 285.194 342.812L282.315 337.209L285.194 334.167C293.054 325.041 293.792 319.28 292.553 308.553C292.972 305.221 292.092 306.737 287.594 309.514C284.105 312.601 282.234 315.223 279.275 323.601C278.283 328.143 277.212 323.845 275.338 316.326L275.276 316.077C271.064 293.915 271.224 283.083 273.996 265.33C274.59 260.895 274.866 259.04 275.276 256.685C275.276 256.685 276.073 256.965 281.195 256.685C286.317 256.406 288.542 255.124 291.593 253.484C294.644 251.843 303.276 245.089 304.711 240.837C305.227 237.405 296.906 239.055 284.714 244.359L278.475 246.76L283.914 234.273C294.955 214.45 301.511 206.762 313.509 195.853C324.396 200.874 329.937 201.326 338.785 198.254C348.773 194.793 346.807 192.833 332.386 189.289L324.547 187.048L334.626 182.566C349.097 176.217 357.658 173.325 357.982 175.114C361.458 172.893 363.693 172.501 367.74 172C371.261 172.949 372.805 174.221 375.099 177.283C377.796 181.592 378.895 183.778 379.738 187.048C380.88 190.067 377.845 193.063 372.859 198.254L364.221 205.298C366.221 189.952 364.492 183.64 357.982 175.114C352.693 187.539 352.792 195.222 357.982 210.1C345.313 218.894 338.809 224.925 328.547 238.115C327.674 225.676 326.054 220.448 321.348 213.782C315.031 227.397 315.423 235.065 322.788 248.681C319.399 258.207 318.03 263.653 317.029 273.654C315.391 282.855 314.529 288.757 311.75 282.779C306.552 277.746 303.561 275.906 298.152 273.654C298.105 285.26 301.513 290.779 311.75 299.428C316.532 302.092 320.803 334.059 321.7 337.008C321.809 337.092 321.854 337.16 321.828 337.209C321.799 337.262 321.756 337.191 321.7 337.008C319.753 335.508 297.382 328.851 300.072 332.886C306.247 343.145 311.628 346.292 322.948 349.535C327.887 349.816 329.851 352.845 333.026 359.46C338.157 367.868 340.638 370.558 344.064 370.346C343.979 367.385 343.129 365.657 340.705 362.502C334.102 352.274 331.089 346.709 327.427 337.209L324.227 330.325C335.124 320.92 336.939 313.566 334.786 297.827C328.874 302.741 325.974 306.85 321.828 317.518C318.847 299.684 318.514 290.047 320.868 273.654C335.971 269 341.407 264.396 345.024 252.203C336.074 254.001 331.227 256.505 322.788 262.769C334.327 236.597 339.654 227.198 345.024 229.631C359.122 232.029 365.687 229.907 375.899 222.267C372.205 219.189 366.599 218.69 354.782 218.425C367.797 208.645 374.958 202.585 387.577 191.05L401.654 190.25C409.087 190.802 413.192 190.357 420.371 187.848L429.169 185.447L447.726 199.215H440.688H433.649C445.127 212.822 450.139 215.375 457.805 215.383C465.373 215.59 470.04 227.091 478.281 245.319C469.678 238.186 465.173 235.173 458.924 235.394C461.422 246.268 465.92 250.84 477.321 257.326C481.512 258.864 482.809 260.793 483.72 265.65C484.593 275.261 484.904 280.285 485 288.382C484.225 314.17 480.914 326.732 470.442 346.173C466.62 352.549 465.004 354.904 464.843 352.737C466.117 346.582 453.486 359.621 440.688 361.221C429.246 365.738 426.129 370.346 425.81 371.947C425.491 373.548 417.304 381.537 412.212 383.153C407.59 381.945 405.634 380.759 403.574 377.87L396.055 369.386L393.176 364.743C402.528 354.557 403.856 347.371 400.534 332.406C393.382 338.348 390.877 343.671 388.856 356.579C383.47 345.354 381.029 339.324 378.778 329.524C388.905 317.967 390.676 311.084 387.417 298.148C381.767 303.597 379.037 307.676 375.099 316.718C371.054 299.844 369.042 290.504 369.5 275.736C374.829 257.138 381.656 249.289 397.815 237.955C406.546 230.88 410.792 226.815 417.172 219.385C420.66 214.651 422.559 212.446 425.49 212.342C434.308 220.166 437.223 224.708 442.127 232.833L445.807 240.357C437.256 244.96 434.895 248.904 435.728 258.767C437.596 263.699 441.12 267.076 449.006 273.494C455.708 277.498 452.224 279.631 445.007 283.42C441.487 285.263 440.313 286.353 439.408 288.382C440.577 291.133 443.482 289.57 449.006 286.301C459.677 279.499 460.068 275.443 450.286 267.731C445.335 264.263 443.584 262.631 446.767 261.648L450.286 259.567C458.812 270.73 458.892 272.782 461.644 278.777V299.428C461.173 309.618 460.833 315.176 459.084 322.801C455.001 328.15 448.5 328.836 434.769 328.884C421.611 329.236 414.19 328.019 400.854 321.84C397.824 320.882 396.118 320.283 393.176 320.079C392.221 322.309 395.802 324.309 402.454 327.924C411.963 331.735 418.454 332.931 430.929 334.327C429.502 335.997 428.215 337.59 427.058 339.13C418.3 350.031 416.725 357.552 418.931 373.548C421.023 372.355 421.811 369.386 421.811 364.743C421.811 360.101 422.81 353.841 425.008 350.336C428.795 341.659 433.819 337.669 441.487 334.327C444.7 334.113 448.017 333.185 460.684 327.924C465.245 326.452 465.406 316.123 465.643 297.507V277.176L459.564 265.65C456.432 259.679 454.747 256.186 452.686 248.041C450.242 237.624 447.728 231.658 440.048 220.666C434.089 213.297 430.246 209.772 421.491 205.778L417.172 210.421C412.383 219.931 406.028 225.776 391.256 236.675C374.671 250.068 366.599 258.475 364.7 282.619C365.008 289.063 365.252 292.942 362.941 289.823C357.074 284.839 353.56 282.562 346.144 281.179C347.076 292.233 352.26 297.452 367.42 305.512L375.099 334.327C368.945 330.597 358.301 326.963 356.382 327.924C354.463 328.884 365.237 345.21 376.538 348.254C379.844 349.632 381.092 351.022 382.617 354.178L392.216 371.947C384.456 369.55 379.534 369.509 369.82 371.947Z" fill="white"/>
<path d="M406.1 257.517C396.388 260.603 390.318 266.335 388.662 274.161L388 277.468L389.876 274.161C394.291 266.114 401.686 262.256 414.709 260.934C423.759 260.052 424.642 259.721 423.869 257.627C422.986 255.533 412.833 255.422 406.1 257.517Z" fill="#011046"/>
<path d="M418.793 271.075C416.144 273.61 414.599 274.161 407.204 274.602C400.693 275.153 398.596 275.704 398.596 276.917C398.596 279.672 407.094 280.664 413.826 278.68C420.228 276.807 425.194 272.508 424.201 269.862C423.208 267.437 422.214 267.658 418.793 271.075Z" fill="#011046"/>
<path d="M450.468 295.545C450.137 296.207 448.592 296.758 447.157 296.758C445.612 296.758 443.957 297.639 443.295 298.962C442.632 300.175 439.984 302.82 437.224 304.804L432.258 308.662L435.679 309.324C441.087 310.426 444.729 310.095 450.137 308.221C455.325 306.568 457.201 304.253 455.766 301.938C455.214 301.167 454.883 299.403 454.883 297.86C454.883 294.994 451.793 293.451 450.468 295.545Z" fill="#011046"/>
<path d="M443.143 247.709C439.274 251.731 439.09 257.036 441.972 257.94C446.714 258.677 448.165 252.396 447.985 251.206C447.806 250.017 448.684 242.76 443.143 247.709Z" fill="#D9D9D9"/>
<path opacity="0.5" d="M545.033 440.137V442.215H538.799V459H536.561V442.215H530.326V440.137H545.033ZM551.14 459V440.137H554.471L560.865 454.924H560.918L567.366 440.137H570.616V459H568.378V443.174H568.325L561.558 459H560.199L553.432 443.174H553.378V459H551.14Z" fill="white"/>
<path d="M266.346 499.164L259.095 499C255.497 499 252.626 499.145 250.482 499.436C250.3 499.218 250.209 498.909 250.209 498.509L250.264 498.073C252.444 497.564 253.843 497.001 254.461 496.383C255.116 495.765 255.533 494.748 255.715 493.33C256.151 489.151 256.369 484.644 256.369 479.81V473.487C256.369 465.527 256.06 461.511 255.443 461.439C254.607 461.329 253.353 461.275 251.681 461.275C251.572 461.021 251.517 460.73 251.517 460.403C251.517 460.076 251.572 459.803 251.681 459.585L257.787 459.749C261.167 459.749 263.729 459.603 265.474 459.312C265.619 459.494 265.692 459.948 265.692 460.675C264.42 460.857 263.511 461.311 262.966 462.038C262.457 462.729 262.075 463.619 261.821 464.709C261.458 466.599 261.276 470.852 261.276 477.466V487.497C261.276 491.677 261.385 494.911 261.603 497.201C262.584 497.383 264.165 497.474 266.346 497.474C266.455 497.728 266.509 498.019 266.509 498.346L266.346 499.164ZM287.771 497.31C287.88 497.528 287.934 497.837 287.934 498.237C287.934 498.637 287.916 498.891 287.88 499C285.481 499.109 283.464 499.309 281.828 499.6C280.229 499.927 279.339 500.09 279.157 500.09C278.03 500.09 274.123 494.748 267.436 484.063C264.783 479.847 263.311 477.539 263.02 477.139L270.107 470.434C273.415 467.344 275.704 464.491 276.976 461.875C276.322 461.511 274.905 461.293 272.724 461.22C272.688 461.075 272.67 460.875 272.67 460.621L272.888 459.53C276.558 459.676 278.775 459.749 279.539 459.749C280.338 459.749 281.828 459.658 284.009 459.476C284.3 459.73 284.445 460.185 284.445 460.839C282.264 462.184 280.375 463.565 278.775 464.982L267.654 474.795C274.523 485.734 278.957 492.367 280.956 494.693C282.301 496.256 283.464 497.092 284.445 497.201C285.063 497.274 286.171 497.31 287.771 497.31ZM309.197 479.156L309.033 492.458C309.033 495.111 309.888 496.438 311.596 496.438L313.558 496.383C313.704 496.565 313.776 496.856 313.776 497.255L313.667 497.855C310.869 498.364 308.87 499.109 307.671 500.09C306.871 499.872 306.18 499.382 305.599 498.618C305.054 497.819 304.745 496.983 304.672 496.111C301.765 497.892 298.875 499.218 296.004 500.09C294.768 500.09 293.496 499.4 292.188 498.019C290.88 496.601 290.225 494.839 290.225 492.731C290.225 491.677 290.462 490.732 290.934 489.896C291.407 489.024 291.97 488.424 292.624 488.097C295.314 486.752 299.311 485.571 304.618 484.553V479.374C304.618 477.375 304.291 475.885 303.636 474.904C303.019 473.923 302.255 473.432 301.347 473.432C300.474 473.432 299.53 473.596 298.512 473.923C297.494 474.213 296.767 474.795 296.331 475.667C295.931 476.539 295.732 477.775 295.732 479.374C295.732 479.52 295.477 479.683 294.968 479.865C294.496 480.01 293.878 480.083 293.115 480.083C292.388 480.083 291.879 479.919 291.588 479.592C291.334 479.229 291.207 478.702 291.207 478.011C291.207 476.703 292.152 475.286 294.042 473.759C294.478 473.468 295.75 472.978 297.858 472.287C300.002 471.597 301.238 471.251 301.565 471.251C304.182 471.251 306.108 472.015 307.344 473.541C308.579 475.068 309.197 476.939 309.197 479.156ZM295.077 492.458C295.077 493.33 295.423 494.275 296.113 495.293C296.804 496.311 297.585 496.819 298.457 496.819C299.366 496.819 300.402 496.51 301.565 495.893C302.728 495.275 303.691 494.621 304.454 493.93C304.563 491.786 304.618 489.314 304.618 486.516C301.565 486.916 298.875 487.788 296.549 489.133C295.568 489.605 295.077 490.714 295.077 492.458ZM331.939 474.631C330.849 473.686 329.45 473.214 327.741 473.214C324.216 473.214 322.453 474.631 322.453 477.466C322.453 478.375 322.78 479.247 323.435 480.083C324.125 480.883 324.961 481.519 325.942 481.991L330.195 484.008C334.338 486.007 336.409 488.678 336.409 492.022C336.409 494.493 335.428 496.456 333.466 497.91C331.503 499.363 329.177 500.09 326.488 500.09C325.07 500.09 323.58 499.945 322.017 499.654C320.491 499.4 319.4 499.127 318.746 498.836C318.637 497.201 318.31 494.929 317.765 492.022C318.165 491.768 318.492 491.64 318.746 491.64C319.037 491.64 319.237 491.677 319.346 491.749C320.073 493.93 320.709 495.329 321.254 495.947C321.654 496.347 322.362 496.783 323.38 497.255C324.398 497.728 325.597 497.964 326.978 497.964C328.396 497.964 329.613 497.583 330.631 496.819C331.648 496.056 332.157 494.911 332.157 493.385C332.157 492.367 331.957 491.604 331.558 491.095C331.158 490.586 330.812 490.205 330.522 489.95C330.267 489.66 329.958 489.405 329.595 489.187C329.268 488.969 328.977 488.806 328.723 488.696C328.505 488.551 328.268 488.424 328.014 488.315C327.796 488.17 327.669 488.097 327.632 488.097L323.544 486.134C320.018 484.462 318.256 482.046 318.256 478.884C318.256 476.303 319.237 474.395 321.199 473.159C323.162 471.887 325.379 471.251 327.85 471.251C329.05 471.251 330.395 471.415 331.885 471.742C333.411 472.033 334.556 472.342 335.319 472.669C335.065 473.541 334.774 475.576 334.447 478.775C334.265 478.92 334.011 478.993 333.684 478.993C333.393 478.993 333.102 478.956 332.811 478.884C332.521 477.066 332.23 475.649 331.939 474.631ZM361.317 479.156L361.154 492.458C361.154 495.111 362.008 496.438 363.716 496.438L365.679 496.383C365.824 496.565 365.897 496.856 365.897 497.255L365.788 497.855C362.989 498.364 360.99 499.109 359.791 500.09C358.991 499.872 358.301 499.382 357.719 498.618C357.174 497.819 356.865 496.983 356.792 496.111C353.885 497.892 350.996 499.218 348.124 500.09C346.889 500.09 345.617 499.4 344.308 498.019C343 496.601 342.346 494.839 342.346 492.731C342.346 491.677 342.582 490.732 343.054 489.896C343.527 489.024 344.09 488.424 344.744 488.097C347.434 486.752 351.432 485.571 356.738 484.553V479.374C356.738 477.375 356.411 475.885 355.757 474.904C355.139 473.923 354.376 473.432 353.467 473.432C352.595 473.432 351.65 473.596 350.632 473.923C349.615 474.213 348.888 474.795 348.451 475.667C348.052 476.539 347.852 477.775 347.852 479.374C347.852 479.52 347.597 479.683 347.089 479.865C346.616 480.01 345.998 480.083 345.235 480.083C344.508 480.083 343.999 479.919 343.709 479.592C343.454 479.229 343.327 478.702 343.327 478.011C343.327 476.703 344.272 475.286 346.162 473.759C346.598 473.468 347.87 472.978 349.978 472.287C352.122 471.597 353.358 471.251 353.685 471.251C356.302 471.251 358.228 472.015 359.464 473.541C360.699 475.068 361.317 476.939 361.317 479.156ZM347.198 492.458C347.198 493.33 347.543 494.275 348.233 495.293C348.924 496.311 349.705 496.819 350.578 496.819C351.486 496.819 352.522 496.51 353.685 495.893C354.848 495.275 355.811 494.621 356.574 493.93C356.683 491.786 356.738 489.314 356.738 486.516C353.685 486.916 350.996 487.788 348.67 489.133C347.688 489.605 347.198 490.714 347.198 492.458ZM370.321 474.522L368.195 474.577C368.013 474.395 367.923 474.123 367.923 473.759L368.032 473.105C370.503 472.778 372.52 472.269 374.083 471.578C374.592 471.36 374.901 471.251 375.01 471.251C375.409 471.251 375.864 471.978 376.373 473.432C376.881 474.849 377.19 476.267 377.299 477.684C380.025 474.849 382.497 472.705 384.714 471.251C386.167 471.251 387.367 471.688 388.312 472.56C389.257 473.396 389.729 474.45 389.729 475.722C389.729 477.175 388.439 477.902 385.858 477.902C385.313 475.976 384.386 475.013 383.078 475.013C382.206 475.013 380.389 476.521 377.626 479.538C377.408 482.3 377.299 486.698 377.299 492.731C377.299 495.747 377.536 497.274 378.008 497.31C378.844 497.419 380.316 497.474 382.424 497.474C382.533 497.728 382.587 498.019 382.587 498.346C382.587 498.673 382.533 498.945 382.424 499.164L376.318 499C373.338 499 370.703 499.145 368.413 499.436C368.232 499.218 368.141 498.909 368.141 498.509L368.195 498.073C370.121 497.71 371.357 497.146 371.902 496.383C372.302 495.802 372.593 494.875 372.775 493.603C372.956 492.295 373.047 489.75 373.047 485.971C373.047 482.191 373.029 480.101 372.993 479.701C372.993 479.302 372.974 478.775 372.938 478.12C372.902 477.466 372.829 476.976 372.72 476.648C372.611 476.321 372.447 475.958 372.229 475.558C371.866 474.868 371.23 474.522 370.321 474.522ZM426.936 499.218L418.867 499C413.925 499 410.236 499.145 407.801 499.436C407.619 499.218 407.528 498.927 407.528 498.564L407.583 498.073C410.127 497.564 411.708 496.856 412.325 495.947C412.653 495.438 412.852 495.039 412.925 494.748C412.998 494.421 413.125 493.167 413.307 490.986C413.525 488.806 413.652 485.08 413.688 479.81V473.487C413.688 465.745 413.379 461.766 412.762 461.548C411.708 461.366 410.454 461.275 409 461.275C408.891 461.021 408.836 460.73 408.836 460.403C408.836 460.076 408.891 459.803 409 459.585L415.106 459.749H420.339L426.936 459.53C433.732 459.53 438.911 461.366 442.473 465.037C446.071 468.671 447.87 473.378 447.87 479.156C447.87 484.899 445.907 489.678 441.982 493.494C438.057 497.31 433.041 499.218 426.936 499.218ZM423.229 461.657C421.484 461.657 420.121 461.729 419.14 461.875C418.704 463.474 418.486 466.999 418.486 472.451V489.623C418.486 492.858 418.558 495.02 418.704 496.111C421.139 496.729 423.683 497.037 426.336 497.037C431.642 497.037 435.567 495.584 438.111 492.676C440.692 489.732 441.982 485.535 441.982 480.083C441.982 475.14 440.565 470.906 437.73 467.381C436.276 465.636 434.295 464.255 431.788 463.238C429.316 462.184 426.463 461.657 423.229 461.657ZM467.726 496.165C470.706 496.165 473.341 495.366 475.63 493.766C476.139 493.948 476.43 494.33 476.503 494.911L470.615 499.055C469.743 499.745 467.798 500.09 464.782 500.09C461.765 500.09 459.203 498.746 457.095 496.056C454.987 493.33 453.933 489.896 453.933 485.753C453.933 481.609 455.078 478.338 457.368 475.94C459.657 473.541 462.383 471.978 465.545 471.251C468.307 471.251 470.742 472.178 472.85 474.032C474.122 475.122 475.013 476.539 475.521 478.284C475.63 478.72 476.139 478.956 477.048 478.993C477.266 479.247 477.375 479.52 477.375 479.81C477.375 480.065 477.339 480.337 477.266 480.628C470.869 482.118 464.582 483.154 458.403 483.736C458.403 488.388 459.694 491.877 462.274 494.203C463.728 495.511 465.545 496.165 467.726 496.165ZM471.16 479.538C471.342 479.429 471.433 479.302 471.433 479.156C471.433 478.974 471.196 478.466 470.724 477.63C470.288 476.757 469.506 475.849 468.38 474.904C467.253 473.923 466.072 473.432 464.836 473.432C463.601 473.432 462.692 473.614 462.11 473.977C460.075 475.358 458.912 477.866 458.621 481.5C460.584 481.5 462.819 481.3 465.327 480.901C467.835 480.465 469.779 480.01 471.16 479.538ZM484.549 472.124L489.129 471.96C489.238 472.142 489.292 472.414 489.292 472.778L489.129 473.65C488.002 473.65 487.202 473.686 486.73 473.759C487.057 476.34 487.911 479.156 489.292 482.209L494.09 492.731L497.851 482.645C499.16 479.12 499.977 476.212 500.304 473.923C499.214 473.741 498.051 473.65 496.815 473.65C496.743 473.396 496.706 473.105 496.706 472.778C496.706 472.414 496.743 472.142 496.815 471.96C498.269 472.069 499.85 472.124 501.558 472.124C503.303 472.124 504.829 472.015 506.138 471.797C506.392 472.196 506.519 472.669 506.519 473.214C505.611 473.614 504.956 474.014 504.557 474.413C503.321 475.649 502.176 477.593 501.122 480.247L493.054 500.09H492.236L484.168 481.119C482.678 477.521 481.496 475.249 480.624 474.304C480.152 473.723 479.425 473.287 478.443 472.996C478.407 472.887 478.389 472.687 478.389 472.396C478.389 472.105 478.498 471.833 478.716 471.578C481.224 471.942 483.168 472.124 484.549 472.124ZM521.244 499.164L516.337 499C513.793 499 511.394 499.145 509.141 499.436C508.923 499.145 508.814 498.836 508.814 498.509L508.923 498.073C510.486 497.71 511.54 497.146 512.085 496.383C512.485 495.802 512.794 495.111 513.012 494.312C513.23 493.476 513.339 491.113 513.339 487.225V481.991C513.339 479.738 513.23 478.175 513.012 477.303C512.83 476.43 512.539 475.849 512.139 475.558C511.74 475.267 511.213 475.086 510.558 475.013L508.541 474.849C508.432 474.704 508.378 474.468 508.378 474.141L508.541 473.432C510.431 473.032 511.958 472.632 513.121 472.233C514.32 471.797 515.719 471.179 517.318 470.379C517.718 470.379 517.991 470.597 518.136 471.033C517.7 473.505 517.482 479.392 517.482 488.696C517.482 490.368 517.537 492.222 517.646 494.257C517.791 496.256 517.973 497.274 518.191 497.31C518.736 497.419 519.753 497.474 521.244 497.474C521.353 497.728 521.407 498.019 521.407 498.346C521.407 498.673 521.353 498.945 521.244 499.164ZM516.119 464.164C514.811 463.256 513.884 462.056 513.339 460.566C513.775 460.057 514.356 459.53 515.083 458.985C515.847 458.404 516.501 458.004 517.046 457.786C518.427 458.804 519.317 460.021 519.717 461.439C518.7 462.747 517.5 463.655 516.119 464.164Z" fill="white"/>
<path opacity="0.6" d="M213.707 551.075V532.531H215.785V534.343H215.839C216.984 533.011 218.503 532.211 220.315 532.211C224.231 532.211 226.869 534.982 226.869 538.766C226.869 542.496 224.125 545.32 220.635 545.32C218.397 545.32 216.611 544.201 215.839 542.789H215.785V551.075H213.707ZM215.785 538.766C215.785 541.377 217.517 543.401 220.208 543.401C222.899 543.401 224.631 541.377 224.631 538.766C224.631 536.154 222.899 534.13 220.208 534.13C217.517 534.13 215.785 536.154 215.785 538.766ZM239.16 545V535.488C239.16 534.343 239.054 533.357 239.054 532.531H241.025C241.025 533.197 241.079 533.89 241.079 534.583H241.132C241.691 533.357 243.237 532.211 245.288 532.211C245.555 532.211 245.848 532.238 246.141 532.345L246.008 534.449C245.661 534.343 245.262 534.289 244.889 534.289C242.357 534.289 241.238 536.075 241.238 538.925V545H239.16ZM256.398 538.766C256.398 534.876 259.222 532.211 263.059 532.211C266.895 532.211 269.72 534.876 269.72 538.766C269.72 542.655 266.895 545.32 263.059 545.32C259.222 545.32 256.398 542.655 256.398 538.766ZM258.636 538.766C258.636 541.377 260.368 543.401 263.059 543.401C265.75 543.401 267.481 541.377 267.481 538.766C267.481 536.154 265.75 534.13 263.059 534.13C260.368 534.13 258.636 536.154 258.636 538.766ZM281.995 545V535.488C281.995 534.343 281.889 533.357 281.889 532.531H283.86C283.86 533.197 283.914 533.89 283.914 534.583H283.967C284.526 533.357 286.072 532.211 288.123 532.211C290.814 532.211 291.667 533.73 292.066 534.583C292.972 533.117 294.118 532.211 296.01 532.211C299.58 532.211 300.752 534.21 300.752 537.433V545H298.674V537.54C298.674 535.808 298.061 534.13 295.637 534.13C293.878 534.13 292.413 535.568 292.413 537.806V545H290.335V537.94C290.335 535.195 289.642 534.13 287.937 534.13C285.246 534.13 284.074 536.075 284.074 538.925V545H281.995ZM313.929 545V532.531H316.007V545H313.929ZM313.449 527.655C313.449 526.829 314.115 526.137 314.968 526.137C315.82 526.137 316.487 526.829 316.487 527.655C316.487 528.535 315.847 529.174 314.968 529.174C314.089 529.174 313.449 528.535 313.449 527.655ZM327.816 543.002L329.468 541.723C330.294 542.735 331.2 543.401 332.665 543.401C333.971 543.401 335.409 542.842 335.409 541.483C335.409 540.151 334.077 539.805 332.745 539.512C330.374 538.979 328.349 538.472 328.349 535.888C328.349 533.464 330.694 532.211 333.012 532.211C334.77 532.211 336.395 532.877 337.248 534.476L335.516 535.622C334.983 534.742 334.104 534.13 332.878 534.13C331.733 534.13 330.427 534.689 330.427 535.861C330.427 536.9 331.919 537.353 333.571 537.673C335.782 538.099 337.647 538.899 337.647 541.403C337.647 544.227 335.143 545.32 332.665 545.32C330.56 545.32 329.042 544.76 327.816 543.002ZM359.169 541.51L360.741 542.735C359.276 544.627 357.517 545.32 355.199 545.32C351.283 545.32 348.885 542.389 348.885 538.766C348.885 534.902 351.603 532.211 355.279 532.211C358.796 532.211 361.194 534.609 361.194 538.739V539.405H351.123C351.283 541.563 352.935 543.401 355.199 543.401C356.985 543.401 358.183 542.762 359.169 541.51ZM351.123 537.646H358.956C358.876 535.542 357.491 534.13 355.199 534.13C352.908 534.13 351.389 535.542 351.123 537.646ZM389.222 538.766C389.222 534.876 392.046 532.211 395.883 532.211C399.72 532.211 402.544 534.876 402.544 538.766C402.544 542.655 399.72 545.32 395.883 545.32C392.046 545.32 389.222 542.655 389.222 538.766ZM391.46 538.766C391.46 541.377 393.192 543.401 395.883 543.401C398.574 543.401 400.306 541.377 400.306 538.766C400.306 536.154 398.574 534.13 395.883 534.13C393.192 534.13 391.46 536.154 391.46 538.766ZM415.885 545V534.289H413.168V532.531H415.885V529.733C415.885 526.696 416.951 524.538 420.308 524.538C420.841 524.538 421.507 524.645 421.907 524.858L421.614 526.723C421.161 526.563 420.681 526.456 420.202 526.456C418.043 526.456 417.964 528.028 417.964 530.186V532.531H421.001V534.289H417.964V545H415.885ZM448.65 551.075V532.531H450.728V534.343H450.781C451.927 533.011 453.446 532.211 455.257 532.211C459.174 532.211 461.811 534.982 461.811 538.766C461.811 542.496 459.067 545.32 455.577 545.32C453.339 545.32 451.554 544.201 450.781 542.789H450.728V551.075H448.65ZM450.728 538.766C450.728 541.377 452.46 543.401 455.151 543.401C457.842 543.401 459.573 541.377 459.573 538.766C459.573 536.154 457.842 534.13 455.151 534.13C452.46 534.13 450.728 536.154 450.728 538.766ZM484.973 532.531V542.043C484.973 543.188 485.08 544.174 485.08 545H483.108C483.108 544.334 483.055 543.641 483.055 542.948H483.002C482.442 544.174 480.897 545.32 478.845 545.32C475.568 545.32 474.103 543.242 474.103 540.231V532.531H476.181V540.018C476.181 542.096 477.087 543.401 479.032 543.401C481.723 543.401 482.895 541.456 482.895 538.606V532.531H484.973ZM497.966 545V535.488C497.966 534.343 497.859 533.357 497.859 532.531H499.831C499.831 533.197 499.884 533.89 499.884 534.583H499.938C500.497 533.357 502.042 532.211 504.094 532.211C504.36 532.211 504.653 532.238 504.947 532.345L504.813 534.449C504.467 534.343 504.067 534.289 503.694 534.289C501.163 534.289 500.044 536.075 500.044 538.925V545H497.966ZM516.578 545V532.531H518.656V545H516.578ZM516.098 527.655C516.098 526.829 516.764 526.137 517.617 526.137C518.47 526.137 519.136 526.829 519.136 527.655C519.136 528.535 518.496 529.174 517.617 529.174C516.738 529.174 516.098 528.535 516.098 527.655ZM538.671 532.531V534.289H534.995V540.524C534.995 542.123 535.021 543.401 536.86 543.401C537.472 543.401 538.138 543.268 538.698 542.975L538.778 544.867C538.058 545.187 537.126 545.32 536.353 545.32C533.396 545.32 532.916 543.721 532.916 541.137V534.289H530.199V532.531H532.916V528.987H534.995V532.531H538.671ZM560.88 532.531L554.859 547.851C554.033 549.956 553.207 551.394 550.702 551.394C550.116 551.394 549.397 551.341 548.837 551.075L549.104 549.263C549.53 549.423 549.983 549.476 550.569 549.476C551.928 549.476 552.434 548.65 552.887 547.425L553.74 545.08L548.571 532.531H550.995L554.859 542.309H554.912L558.615 532.531H560.88Z" fill="white"/>
</g>
<defs>
<clipPath id="clip0_32_2">
<rect width="784" height="714" fill="white"/>
</clipPath>
</defs>
</svg>
